<svg width="17" height="12" viewBox="0 0 17 12" fill="none" xmlns="http://www.w3.org/2000/svg">
<path d="M1.275 11.6373C0.935 11.6373 0.6375 11.5282 0.3825 11.31C0.1275 11.0918 0 10.8373 0 10.5463V1.091C0 0.800066 0.1275 0.5455 0.3825 0.3273C0.6375 0.1091 0.935 0 1.275 0H15.725C16.065 0 16.3625 0.1091 16.6175 0.3273C16.8725 0.5455 17 0.800066 17 1.091V10.5463C17 10.8373 16.8725 11.0918 16.6175 11.31C16.3625 11.5282 16.065 11.6373 15.725 11.6373H1.275ZM15.725 2.09108L8.84 5.94595C8.78333 5.97019 8.73021 5.9914 8.68063 6.00959C8.63104 6.02777 8.57083 6.03686 8.5 6.03686C8.42917 6.03686 8.36896 6.02777 8.31938 6.00959C8.26979 5.9914 8.21667 5.97019 8.16 5.94595L1.275 2.09108V10.5463H15.725V2.09108ZM8.5 5.05496L15.64 1.091H1.38125L8.5 5.05496ZM1.275 2.21837V1.50345V1.51676V1.091V1.50922V1.49263V2.21837Z" fill="#689F38"/>
</svg>
