<svg width="16" height="12" viewBox="0 0 16 12" fill="none" xmlns="http://www.w3.org/2000/svg">
<path d="M1.33333 10.3333V1C1.33333 0.725 1.43125 0.489583 1.62708 0.29375C1.82292 0.0979167 2.05833 0 2.33333 0H13.6667C13.9417 0 14.1771 0.0979167 14.3729 0.29375C14.5688 0.489583 14.6667 0.725 14.6667 1V10.3333H15.5C15.6417 10.3333 15.7604 10.3815 15.8563 10.4779C15.9521 10.5743 16 10.6938 16 10.8362C16 10.9787 15.9521 11.0972 15.8563 11.1917C15.7604 11.2861 15.6417 11.3333 15.5 11.3333H0.5C0.358333 11.3333 0.239583 11.2851 0.14375 11.1887C0.0479167 11.0923 0 10.9729 0 10.8304C0 10.6879 0.0479167 10.5694 0.14375 10.475C0.239583 10.3806 0.358333 10.3333 0.5 10.3333H1.33333ZM6.94313 10.3333H9.0902C9.18562 10.3333 9.26667 10.3 9.33333 10.2333C9.4 10.1667 9.43333 10.0833 9.43333 9.98333C9.43333 9.88333 9.4 9.8 9.33333 9.73333C9.26667 9.66667 9.18562 9.63333 9.0902 9.63333H6.94313C6.84771 9.63333 6.76667 9.66667 6.7 9.73333C6.63333 9.8 6.6 9.88333 6.6 9.98333C6.6 10.0833 6.63333 10.1667 6.7 10.2333C6.76667 10.3 6.84771 10.3333 6.94313 10.3333ZM2.4 8.63333H13.7333V1H2.4V8.63333Z" fill="#9CCC65"/>
</svg>
