<svg width="198" height="38" viewBox="0 0 198 38" fill="none" xmlns="http://www.w3.org/2000/svg">
<rect x="31.2129" y="0.962402" width="6.80514" height="34.9333" transform="rotate(41.5975 31.2129 0.962402)" fill="#93B164"/>
<rect x="23.1919" width="6.83523" height="34.9333" transform="rotate(41.5975 23.1919 0)" fill="#556F2F"/>
<path d="M16.84 37H13.44C12.88 37 12.6 36.72 12.6 36.16V12.12C12.6 11.56 12.88 11.28 13.44 11.28H22.96C25.04 11.28 26.6667 11.8533 27.84 13C29.0133 14.1467 29.6 15.76 29.6 17.84V20.96C29.6 23.9733 28.4133 25.9733 26.04 26.96V27.12L30.32 36.04C30.56 36.68 30.3333 37 29.64 37H26.4C25.92 37 25.5733 36.9467 25.36 36.84C25.1467 36.7333 24.9733 36.5067 24.84 36.16L20.84 27.52H18.16C17.84 27.52 17.68 27.6667 17.68 27.96V36.16C17.68 36.72 17.4 37 16.84 37ZM18.12 23.44H22.04C22.8933 23.44 23.52 23.2667 23.92 22.92C24.32 22.5467 24.52 21.96 24.52 21.16V18.04C24.52 17.2133 24.32 16.6133 23.92 16.24C23.52 15.8667 22.8933 15.68 22.04 15.68H18.12C17.8267 15.68 17.68 15.8267 17.68 16.12V23C17.68 23.2933 17.8267 23.44 18.12 23.44ZM34.275 13.16V9.68C34.275 9.14667 34.5417 8.88 35.075 8.88H38.555C39.0883 8.88 39.355 9.13333 39.355 9.64V13.16C39.355 13.6933 39.0883 13.96 38.555 13.96H35.075C34.5417 13.96 34.275 13.6933 34.275 13.16ZM34.275 36.16V17.44C34.275 16.88 34.5417 16.6 35.075 16.6H38.515C39.075 16.6 39.355 16.88 39.355 17.44V36.16C39.355 36.5067 39.2883 36.7333 39.155 36.84C39.0483 36.9467 38.8483 37 38.555 37H35.115C34.555 37 34.275 36.72 34.275 36.16ZM51.1178 37H50.1578C48.0511 37 46.4245 36.44 45.2778 35.32C44.1311 34.2 43.5578 32.5867 43.5578 30.48V23.12C43.5578 21.0133 44.1311 19.4 45.2778 18.28C46.4245 17.16 48.0511 16.6 50.1578 16.6H59.3978C59.9845 16.6 60.2778 16.88 60.2778 17.44V36.16C60.2778 36.72 59.9845 37 59.3978 37H56.0378C55.4778 37 55.1978 36.72 55.1978 36.16V34.84H55.0378C54.7445 35.56 54.2245 36.1067 53.4778 36.48C52.7311 36.8267 51.9445 37 51.1178 37ZM55.1978 29.56V21.44C55.1978 21.1467 55.0378 21 54.7178 21H50.9578C50.1045 21 49.5045 21.1867 49.1578 21.56C48.8111 21.9067 48.6378 22.5067 48.6378 23.36V30.24C48.6378 31.0933 48.8111 31.7067 49.1578 32.08C49.5045 32.4267 50.1045 32.6 50.9578 32.6H52.4378C54.2778 32.6 55.1978 31.5867 55.1978 29.56ZM68.9009 37H65.5009C64.9409 37 64.6609 36.72 64.6609 36.16V17.44C64.6609 16.88 64.9409 16.6 65.5009 16.6H68.9009C69.4609 16.6 69.7409 16.88 69.7409 17.44V18.76H69.9009C70.4876 17.32 71.7943 16.6 73.8209 16.6H75.1009C79.2876 16.6 81.3809 18.7733 81.3809 23.12V36.16C81.3809 36.72 81.0876 37 80.5009 37H77.1409C76.5809 37 76.3009 36.72 76.3009 36.16V23.36C76.3009 22.5067 76.1143 21.9067 75.7409 21.56C75.3943 21.1867 74.7943 21 73.9409 21H72.5009C70.6609 21 69.7409 22.0133 69.7409 24.04V36.16C69.7409 36.72 69.4609 37 68.9009 37ZM105.348 37H100.988C98.8808 37 97.2542 36.44 96.1075 35.32C94.9608 34.2 94.3875 32.5867 94.3875 30.48V17.8C94.3875 15.6933 94.9608 14.08 96.1075 12.96C97.2542 11.84 98.8808 11.28 100.988 11.28H105.348C107.428 11.28 109.041 11.8533 110.188 13C111.361 14.12 111.948 15.72 111.948 17.8V19.68C111.948 20.2667 111.654 20.56 111.068 20.56H107.708C107.148 20.56 106.868 20.2667 106.868 19.68V18.04C106.868 17.1867 106.681 16.5867 106.308 16.24C105.961 15.8667 105.361 15.68 104.508 15.68H101.788C100.961 15.68 100.361 15.8667 99.9875 16.24C99.6408 16.5867 99.4675 17.1867 99.4675 18.04V30.24C99.4675 31.0933 99.6408 31.7067 99.9875 32.08C100.361 32.4267 100.961 32.6 101.788 32.6H104.508C105.361 32.6 105.961 32.4267 106.308 32.08C106.681 31.7067 106.868 31.0933 106.868 30.24V28.6C106.868 28.0133 107.148 27.72 107.708 27.72H111.068C111.654 27.72 111.948 28.0133 111.948 28.6V30.48C111.948 32.56 111.361 34.1733 110.188 35.32C109.041 36.44 107.428 37 105.348 37ZM125.671 37H122.111C120.004 37 118.378 36.44 117.231 35.32C116.084 34.2 115.511 32.5867 115.511 30.48V23.12C115.511 21.0133 116.084 19.4 117.231 18.28C118.378 17.16 120.004 16.6 122.111 16.6H125.671C127.751 16.6 129.364 17.1733 130.511 18.32C131.684 19.44 132.271 21.04 132.271 23.12V30.48C132.271 32.56 131.684 34.1733 130.511 35.32C129.364 36.44 127.751 37 125.671 37ZM122.871 32.64H124.911C125.764 32.64 126.364 32.4667 126.711 32.12C127.084 31.7733 127.271 31.1733 127.271 30.32V23.28C127.271 22.4267 127.084 21.8267 126.711 21.48C126.364 21.1333 125.764 20.96 124.911 20.96H122.871C122.018 20.96 121.418 21.1333 121.071 21.48C120.724 21.8267 120.551 22.4267 120.551 23.28V30.32C120.551 31.1733 120.724 31.7733 121.071 32.12C121.418 32.4667 122.018 32.64 122.871 32.64ZM143.983 37H136.383C135.849 37 135.583 36.72 135.583 36.16V33.6C135.583 33.3067 135.636 33.1067 135.743 33C135.849 32.8667 136.063 32.8 136.383 32.8H143.063C144.369 32.8 145.023 32.4 145.023 31.6V31.4C145.023 30.76 144.476 30.1467 143.383 29.56L139.423 27.36C138.063 26.6667 137.063 25.92 136.423 25.12C135.783 24.32 135.463 23.2933 135.463 22.04C135.463 20.1733 135.956 18.8 136.943 17.92C137.929 17.04 139.476 16.6 141.583 16.6H148.263C148.796 16.6 149.063 16.88 149.063 17.44V20.04C149.063 20.3333 149.009 20.5467 148.903 20.68C148.796 20.7867 148.583 20.84 148.263 20.84H142.703C141.396 20.84 140.743 21.1733 140.743 21.84V22.04C140.743 22.6267 141.316 23.2267 142.463 23.84L146.503 26.24C147.889 26.9867 148.863 27.76 149.423 28.56C149.983 29.3333 150.263 30.36 150.263 31.64C150.263 35.2133 148.169 37 143.983 37ZM154.242 21H152.642C152.322 21 152.095 20.9467 151.962 20.84C151.855 20.7333 151.802 20.52 151.802 20.2V17.44C151.802 16.88 152.082 16.6 152.642 16.6H154.242C154.535 16.6 154.682 16.4533 154.682 16.16V12.36C154.682 11.8 154.975 11.52 155.562 11.52H158.922C159.482 11.52 159.762 11.8 159.762 12.36V16.16C159.762 16.4533 159.922 16.6 160.242 16.6H163.362C163.922 16.6 164.202 16.88 164.202 17.44V20.2C164.202 20.4933 164.135 20.7067 164.002 20.84C163.895 20.9467 163.682 21 163.362 21H160.242C159.922 21 159.762 21.1467 159.762 21.44V30.28C159.762 31.1067 159.948 31.7067 160.322 32.08C160.695 32.4267 161.308 32.6 162.162 32.6H163.762C164.322 32.6 164.602 32.88 164.602 33.44V36.2C164.602 36.4933 164.535 36.7067 164.402 36.84C164.295 36.9467 164.082 37 163.762 37H161.322C159.215 37 157.575 36.44 156.402 35.32C155.255 34.2 154.682 32.6 154.682 30.52V21.44C154.682 21.1467 154.535 21 154.242 21ZM175.063 37H174.103C171.996 37 170.37 36.44 169.223 35.32C168.076 34.2 167.503 32.5867 167.503 30.48V23.12C167.503 21.0133 168.076 19.4 169.223 18.28C170.37 17.16 171.996 16.6 174.103 16.6H183.343C183.93 16.6 184.223 16.88 184.223 17.44V36.16C184.223 36.72 183.93 37 183.343 37H179.983C179.423 37 179.143 36.72 179.143 36.16V34.84H178.983C178.69 35.56 178.17 36.1067 177.423 36.48C176.676 36.8267 175.89 37 175.063 37ZM179.143 29.56V21.44C179.143 21.1467 178.983 21 178.663 21H174.903C174.05 21 173.45 21.1867 173.103 21.56C172.756 21.9067 172.583 22.5067 172.583 23.36V30.24C172.583 31.0933 172.756 31.7067 173.103 32.08C173.45 32.4267 174.05 32.6 174.903 32.6H176.383C178.223 32.6 179.143 31.5867 179.143 29.56Z" fill="white"/>
<path d="M193.046 31.24V36.16C193.046 36.72 192.793 37 192.286 37H188.726C188.193 37 187.926 36.72 187.926 36.16V31.28C187.926 30.7467 188.193 30.48 188.726 30.48H192.286C192.793 30.48 193.046 30.7333 193.046 31.24Z" fill="#82A350"/>
</svg>
