<svg width="17" height="17" viewBox="0 0 17 17" fill="none" xmlns="http://www.w3.org/2000/svg">
<path d="M15.9375 17C14.0171 17 12.1086 16.5278 10.2118 15.5833C8.31505 14.6389 6.61111 13.4111 5.1 11.9C3.58889 10.3889 2.36111 8.68495 1.41667 6.78819C0.472222 4.89143 0 2.98287 0 1.0625C0 0.758924 0.101189 0.505947 0.303568 0.303568C0.505947 0.101189 0.758924 0 1.0625 0H4.36806C4.5823 0 4.7736 0.0747685 4.94195 0.224306C5.11028 0.373843 5.21806 0.574537 5.26528 0.826389L5.90278 3.80139C5.93426 4.02176 5.93032 4.22245 5.89097 4.40347C5.85162 4.58449 5.76898 4.73796 5.64306 4.86389L3.28194 7.24861C4.16343 8.7125 5.15116 9.9875 6.24514 11.0736C7.33912 12.1597 8.5787 13.0806 9.96389 13.8361L12.2069 11.5222C12.3644 11.3491 12.5454 11.2271 12.75 11.1562C12.9546 11.0854 13.1593 11.0736 13.3639 11.1208L16.1736 11.7347C16.4146 11.7878 16.6126 11.9074 16.7676 12.0933C16.9225 12.2793 17 12.4981 17 12.75V15.9375C17 16.2411 16.8988 16.4941 16.6964 16.6964C16.4941 16.8988 16.2411 17 15.9375 17ZM2.57361 5.95L4.48611 4.01389L3.94306 1.41667H1.41667C1.41667 2.03056 1.51111 2.70347 1.7 3.43542C1.88889 4.16736 2.18009 5.00556 2.57361 5.95ZM15.5833 15.5833V13.0569L13.1514 12.5611L11.2861 14.5208C11.9315 14.8199 12.6319 15.0639 13.3875 15.2528C14.1431 15.4417 14.875 15.5519 15.5833 15.5833Z" fill="#33691E"/>
</svg>
